<svg id="svg" xmlns="http://www.w3.org/2000/svg" xmlns:xlink="http://www.w3.org/1999/xlink" width="400" height="428.94736842105266" viewBox="0, 0, 400,428.94736842105266"><g id="svgg"><path id="path0" d="M155.263 44.331 C 129.784 48.607,102.834 66.589,88.015 89.201 C 77.057 105.921,76.348 108.511,63.207 179.934 C 58.114 207.615,49.763 252.911,44.650 280.592 C 39.536 308.273,34.831 333.882,34.193 337.500 C 33.556 341.118,30.938 355.329,28.377 369.079 C 25.815 382.829,23.711 395.074,23.702 396.290 C 23.680 399.084,26.948 398.203,41.118 391.596 C 46.727 388.982,55.757 384.770,61.184 382.237 C 66.612 379.704,75.641 375.491,81.250 372.874 C 105.018 361.786,110.466 359.245,121.711 353.998 C 128.224 350.960,135.625 347.529,138.158 346.374 C 140.691 345.220,151.311 340.220,161.759 335.264 C 191.294 321.254,197.326 319.851,228.355 319.777 C 250.577 319.725,248.684 323.013,248.684 284.473 L 248.684 252.366 226.645 252.931 C 197.417 253.680,203.679 250.461,156.724 288.876 C 121.101 318.021,86.915 345.940,67.105 362.065 C 58.783 368.840,49.605 376.100,46.711 378.199 C 43.816 380.297,74.605 348.850,115.132 308.316 C 171.685 251.752,190.214 233.983,194.832 231.886 C 200.522 229.302,203.550 229.131,250.881 228.722 C 290.867 228.376,301.351 227.927,303.089 226.484 C 305.002 224.895,305.263 220.823,305.263 192.602 L 305.263 160.526 254.012 160.526 C 189.432 160.526,183.224 161.706,167.157 177.032 C 159.226 184.596,156.802 188.057,132.192 226.940 C 124.417 239.224,116.122 252.250,113.758 255.887 C 111.394 259.524,94.809 285.592,76.902 313.816 C 29.149 389.078,28.523 389.912,47.529 352.949 C 76.359 296.879,85.126 279.768,106.010 238.816 C 162.960 127.142,146.315 137.402,272.272 136.331 C 331.741 135.825,360.127 135.136,361.088 134.177 C 363.619 131.649,363.730 50.411,361.208 46.562 L 359.150 43.421 258.851 43.600 C 203.687 43.699,157.072 44.028,155.263 44.331 " stroke="none" fill="#6851ff" fill-rule="evenodd"></path></g></svg>